/* XPM */
static const char * tile_xpm[] = {
"16 16 2 1",
"o	c #CCCCCC",
".	c #DDDDDD",
"oooooooooooooooo",
"................",
"oooooooooooooooo",
"oooooooooooooooo",
"oooooooooooooooo",
"................",
"oooooooooooooooo",
"oooooooooooooooo",
"oooooooooooooooo",
"................",
"oooooooooooooooo",
"oooooooooooooooo",
"oooooooooooooooo",
"................",
"oooooooooooooooo",
"oooooooooooooooo"};
