/* XPM */
static const char * tile_xpm[] = {
"16 16 2 1",
".	c #DDDDDD",
"o	c #EEEEEE",
"................",
"................",
"oooooooooooooooo",
"oooooooooooooooo",
"................",
"................",
"oooooooooooooooo",
"oooooooooooooooo",
"................",
"................",
"oooooooooooooooo",
"oooooooooooooooo",
"................",
"................",
"oooooooooooooooo",
"oooooooooooooooo"};
