/* XPM */
static const char * htmldoc_xpm[] = {
"32 32 64 1",
" 	c #00007f",
".	c #080604",
"+	c #0E1211",
"@	c #131A26",
"#	c #151D1E",
"$	c #1E1C23",
"%	c #182217",
"&	c #192448",
"*	c #1C2927",
"=	c #24262C",
"-	c #21301F",
";	c #1F3640",
">	c #253A37",
",	c #1C475A",
"'	c #1A5340",
")	c #284B4C",
"!	c #25564B",
"~	c #1F5859",
"{	c #384D53",
"]	c #255664",
"^	c #3C5A5B",
"/	c #555246",
"(	c #425F41",
"_	c #21726F",
":	c #6D4690",
"<	c #455C99",
"[	c #2A707C",
"}	c #32754D",
"|	c #4B5F80",
"1	c #9335A1",
"2	c #34745D",
"3	c #4C6B5B",
"4	c #4C7271",
"5	c #696C6F",
"6	c #318F91",
"7	c #CC547D",
"8	c #3F9F8A",
"9	c #40A670",
"0	c #5B9588",
"a	c #6F9093",
"b	c #748C9F",
"c	c #789278",
"d	c #889090",
"e	c #609FD3",
"f	c #53B5B9",
"g	c #C37EE3",
"h	c #8BAFB3",
"i	c #8AB1C3",
"j	c #99B1A5",
"k	c #A8ACAB",
"l	c #EBB273",
"m	c #92C9ED",
"n	c #9CD6B0",
"o	c #87DCCA",
"p	c #96E1ED",
"q	c #ADD9E7",
"r	c #CDCECE",
"s	c #D8C2F4",
"t	c #C0D5D2",
"u	c #BEEEF9",
"v	c #D0EEE4",
"w	c #E4E7EC",
"x	c #E1F3B7",
"y	c #FDFFFC",
"++##+++...                      ",
"++#=$$$#-*+.                    ",
"++*yyy+*--~yyy.  yyyyyyyyy      ",
"++#yyy+%>!~yyy@. yyyyyyyyyy     ",
"##*yyy#*-![yyy,,+dyyk   wyyy    ",
"++*yyy+>'_6yyy,[[dyyk    yyyw   ",
"##*yyy%>'86yyy~_]hyyk     yyy   ",
"+*#yyy*'88fyyy]]~hyy5#    yyyk  ",
"###yyyyyyyyyyy;,,hyyd+@   yyyk  ",
"@*#yyyyyyyyyyy;,]byyb&+@  yyyk  ",
"#*@yyy'}8]]yyy;],iyyb<[+= yyyd  ",
"@#@yyy}966[yyv,,_jyyk8nk+ yyy5  ",
"*@@yyy}8[[]yyy;~_iyyjntr5dyyw   ",
"#@@yyy2[[]]yyw~_[iyykkrwwyyyd   ",
"#@@yyy~[])~yyy)6foyywwyyyyyk    ",
"@$;yyy)]]~]yyy~onvyyyyyyyyd$    ",
"@$(nhd,)]]~hhj0nrwrrkrrrkkr#    ",
"@-}9_])~,__80jjd0akrwwrryss5#   ",
"=}92]{~,__0ji4--%--krwwsgg:|$   ",
"%}2])]]_6hrb%*;3}(-%[sgg:<|)$+  ",
"++>{~)_0ktb*{<epoo0^>:11:&@@+.  ",
".++*][drtb*{<mppppm43{&@@.@@@+  ",
"#+++>ktqh#><eqqwwvqd4>#@&@&&&@. ",
".*+#+4tt{+^<muupuuui33>&&&&&&&. ",
".+^+;+jo,-/biumuuquh433,,,,,,,. ",
"..+/#@!8]qb4aqpiipha}0']~]]],]+ ",
"...{++.,,bvm25aaha4]4c^^~]{{{{# ",
"...#++.>^^avu9}3!{{an3^^^^{{]{# ",
"...++++>^{^4kvxl7eoj/^^===$${{= ",
"....+.+;{=#^;;^ac3);;[{@;{;@{]# ",
"....+++>{$=^=);^)=);{{{=;;{@{,= ",
"...+.++;;=>)=**3)=;={]{@=;;@{{# "};
