#define htmldoc_s_m_width 24
#define htmldoc_s_m_height 24
static unsigned char htmldoc_s_m_bits[] = {
   0xff, 0x00, 0x00, 0xff, 0xc3, 0x01, 0xff, 0xef, 0x0f, 0xff, 0xff, 0x1c,
   0xff, 0xff, 0x38, 0xff, 0xff, 0x30, 0xff, 0xff, 0x31, 0xff, 0xff, 0x33,
   0xff, 0xff, 0x3f, 0xff, 0xff, 0x3f, 0xff, 0xff, 0x1f, 0xff, 0xff, 0x1f,
   0xff, 0xff, 0x1f, 0xff, 0xff, 0x3f, 0xff, 0xff, 0x3f, 0xff, 0xff, 0x7f,
   0xff, 0xff, 0x7f, 0xff, 0xff, 0x7f, 0xff, 0xff, 0x7f, 0xff, 0xff, 0x7f,
   0xff, 0xff, 0x7f, 0xff, 0xff, 0x7f, 0xff, 0xff, 0x7f, 0xff, 0xff, 0x7f };
