/* XPM */
static char * setup_xpm[] = {
"200 50 22 1",
" 	c None",
".	c #6E0091",
"+	c #91006E",
"@	c #FF0000",
"#	c #FF3800",
"$	c #FFAA00",
"%	c #FF7100",
"&	c #FF5500",
"*	c #FF8D00",
"=	c #FFE200",
"-	c #FFFF00",
";	c #FFC600",
">	c #FF1C00",
",	c #E31C00",
"'	c #AA5500",
")	c #C73800",
"!	c #00FF00",
"~	c #1DE200",
"{	c #55AA00",
"]	c #39C600",
"^	c #8E7100",
"/	c #728D00",
".++++++++++++++++++++++++++++++++++++++++++++++++++++++++++++++++++++++++++++++++++++++++++++++++++++++++++++++++++++++++++++++++++++++++++++++++++++++++++++++++++++++++++++++++++++++++++++++++++++++.",
"+@@@@@@@@@@@@@@@@@@@@@@@@@@@@@@@@@@@@@@@@@@@@@@@@@@@@@@@@@@@@@@@@@@@@@@@@@@@@@@@@@@@@@@@@@@@@@@@@@@@@@@@@@@@@@@@@@@@@@@@@@@@@@@@@@@@@@@@@@@@@@@@@@@@@@@@@@@@@@@@@@@@@@@@@@@@@@@@@@@@@@@@@@@@@@@@@@@@@@@+",
"+@@@@@@@@@@@@@@@@@@@@@@@@@@@@@@@@@@@@@@@@@@@@@@@@@@@@@@@@@@@@@@@@@@@@@@@@@@@@@@@@@@@@@@@@@@@@@@@@@@@@@@@@@@@@@@@@@@@@@@@@@@@@@@@@@@@@@@@@@@@@@@@@@@@@@@@@@@@@@@@@@@@@@@@@@@@@@@@@@@@@@@@@@@@@@@@@@@@@@@+",
"+@@@@@@@@@@@@@@@@@@@@@@@@@@@@@@@@@@@@@@@@@@@@@@@@@@@@@@@@@@@@@@@@@@@@@@@@@@@@@@@@@@@@@@@@@@@@@@@@@@@@@@@@@@@@@@@@@@@@@@@@@@@@@@@@@@@@@@@@@@@@@@@@@@@@@@@@@@@@@@@@@@@@@@@@@@@@@@@@@@@@@@@@@@@@@@@@@@@@@@+",
"+@@@@@@@@@@@@@@@@@@@@@@@@@@@@@@@@@@@@@@@@@@@@@@@@@@@@@@@@@@@@@@@@@@@@@@@@@@@@@@@@@@@@@@@@@@@@@@@@@@@@@@@@@@@@@@@@@@@@@@@@@@@@@@@@@@@@@@@@@@@@@@@@@@@@@@@@@@@@@@@@@@@@@@@@@@@@@@@@@@@@@@@@@@@@@@@@@@@@@@+",
"+@@@@@@@@@@@@@@@@@@@@@@@@@@@@@@@@@@@@@@@@@@@@@@@@@@@@@@@@@@@@@@@@@@@@@@@@@@@@@@@@@@@@@@@@@@@@@@@@@@@@@@@@@@@@@@@@@@@@@@@@@@@@@@@@@@@@@@@@@@@@@@@@@@@@@@@@@@@@@@@@@@@@@@@@@@@@@@@@@@@@@@@@@@@@@@@@@@@@@@+",
"+@@@@@@@@@@@@@@@@@@@@@@@@@@@@@@@@@@@@@@@@@@@@@@@@@@@@@@@@@@@@@@@@@@@@@@@@@@@@@@@@@@@@@@@@@@@@@@@@@@@@@@@@@@@@@@@@@@@@@@@@@@@@@@@@@@@@@@@@@@@@@@@@@@@@@@@@@@@@@@@@@@@@@@@@@@@@@@@@@@@@@@@@@@@@@@@@@@@@@@+",
"+@@@@@@@@@@@@@@@@@@@@@@@@@@@@@@@@@@@@@@@@@@@@@@@@@@@@@@@@@@@@@@@@@@@@@@@@@@@@@@@@@@@@@@@@@@@@@@@@@@@@@@@@@@@@@@@@@@@@@@@@@@@@@@@@@@@@@@@@@@@@@@@@@@@@@@@@@@@@@@@@@@@@@@@@@@@@@@@@@@@@@@@@@@@@@@@@@@@@@@+",
"+@@@@@@@@@@@@@@@@@@@@@@@@@@@@@@@@@@@@@@@@@@@@@@@@@@@@@@@@@@@@@@@@@@@@@@@@@@@@@@@@@@@@@@@@@@@@@@@@@@@@@@@@@@@@@@@@@@@@@@@@@@@@@@@@@@@@@@@@@@@@@@@@@@@@@@@@@@@@@@@@@@@@@@@@@@@@@@@@@@@@@@@@@@@@@@@@@@@@@@+",
"+@@@@@@@@@@@@@@@@@@@@@@@@@@@@@@@@@@@@@@@@@@@@@@@@@@@@@@@@@@@@@@@@@@@@@@@@@@@@@@@@@@@@@@@@@@@@@@@@@@@@@@@@@@@@@@@@@@@@@@@@@@@@@@@@@@@@@@@@@@@@@@@@@@@@@@@@@@@@@@@@@@@@@@@@@@@@@@@@@@@@@@@@@@@@@@@@@@@@@@+",
"+@@@@@@@@@@@@@@@@@@@@@@@@@@@#$$$$$$$$%@%$$$$$$$$#@%$$$$$$$$$$$$$$$$$%@$$$$$$$&@@@@@&$$$$$$$@%$$$$$$$$$$%@@@@@@@@@@@@@@@@@@@@@@@@@@@@@@@@@$$$$$$$$$$&@@@@@@@@@@@#*=----;%@@@@@@@@@@@#$=----;%@@@@@@@@@@@+",
"+@@@@@@@@@@@@@@@@@@@@@@@@@@@&--------$@$--------&@$-----------------$@-------;@@@@@;-------@$----------$@@@@@@@@@@@@@@@@@@@@@@@@@@@@@@@@&-----------=&@@@@@@@>;---------;>@@@@@@@>$---------$@@@@@@@@@@+",
"+@@@@@@@@@@@@@@@@@@@@@>%@@@@&--------$@$--------&@$-----------------$@-------->@@@>--------@$----------$@@@@@@@@@@@@%>@@@@@@@@@@@@@@@@@@%------------->@@@@@&=-----------;@@@@@@>=-----------$@@@@@@@@@+",
"+@@@@@@@@@@@@@@@@@@@@*--#@@@&--------$@$--------&@;-----------------;@--------&@@@&--------@$----------$@@@@@@@@@@@#--*@@@@@@@@@@@@@@@@@$---&&&&&;----*@@@@>----$>@@@*----%@@@@>=---;#@@@$---->@@@@@@@@+",
"+@@@@@@@@@@@@@@@@@@&=---=@@@@@@$---@@@@@@@---$@@@@----@@@&---&@@@----@@@---;--$@@@$--;---@@@@@@&---&@@@@@@@@@@@@@@@=---=&@@@@@@@@@@@@@@@---$@@@@@@*----@@@@=---&@@@@@@*---$@@@@=---$@@@@@@;---&@@@@@@@@+",
"+@@@@@@@@@@@@@@@@>;-----$>@@@@@$---@@@@@@@---$@@@@----@@@&---&@@@----@@@---$;--@@@--;$---@@@@@@&---&@@@@@@@@@@@@@@>$-----;>@@@@@@@@@@@@>---*@@@@@@>----@@@*---%@@@@@@@>----@@@%---;@@@@@@@*---*@@@@@@@@+",
"+@@@@@@@@@@@@@@@%-----=#@@@@@@@$---@@@@@@@---$@@@@---=@@@&---&@@@=---@@@---$%--&@&--%$---@@@@@@&---&@@@@@@@@@@@@@@@@#=-----%@@@@@@@@@@@&---&@@@@@@@----@@@---;@@@@@@@@@;---@@@=--->@@@@@@@>&&&>@@@@@@@@+",
"+@@@@@@@@@@@@@#=-----%@@@@@@@@@$---@@@@@@@---$@@@@---$@@@&---&@@@$---@@@---$>--$@$-->$---@@@@@@&---&@@@@@@@@@@@@@@@@@@%-----=#@@@@@@@@@*--->@@@@@@@----@@%---&@@@@@@@@@$---@@%---$@@@@@@@@@@@@@@@@@@@@@+",
"+@@@@@@@@@@@>$-----$>@@@@@@@@@@$-------------$@@@&---$@@@&---&@@@$---&@@---$@=--@--=@$---@@@@@@&---&@@@@@@@@@@@@@@@@@@@>$-----$>@@@@@@@;--=@@@@@@@>---=@@$---@@@@@@@@@@;--=@@$---&@@@@@@@@@@@@@@@@@@@@@+",
"+@@@@@@@@@@%-----=#@@@@@@@@@@@@$-------------$@@@>&&$%@@@&---&@@@%$&&>@@---$@*--%--*@$---@@@@@@&---&@@@@@@@@@@@@@@@@@@@@@#=-----%@@@@@@---$@@@@@@@&---$@@---$@@@@@@@@@@---$@@----@@@@@@@@@@@@@@@@@@@@@@+",
"+@@@@@@@@#=-----%@@@@@@@@@@@@@@$-------------$@@@@@@@@@@@&---&@@@@@@@@@@---$@#--=--#@$---@@@@@@&---&@@@@@@@%$%&>@@@@@@@@@@@%-----=#@@@#---%@@@@@@@*---%@#---*@@@@@@@@@#---%@#---;@@@@@@@@@@@@@@@@@@@@@@+",
"+@@@@@@@@@*-----;#@@@@@@@@@@@@@$---$$$$$$$---$@@@@@@@@@@@&---&@@@@@@@@@@---$@@=---=@@$---@@@@@@&---&@@@@@@@$---#@@@@@@@@@@#;-----*@@@@&---&@@@@@@@=--->@&---&@@@@@@@@@*--->@&---$@@@@@@@@@@@@@@@@@@@@@@+",
"+@@@@@@@@@@>;-----*>@@@@@@@@@@@$---@@@@@@@---$@@@@@@@@@@@&---&@@@@@@@@@@---$@@$---$@@$---@@@@@@&---&@@@@@@@$---@@@@@@@@@>*-----;>@@@@@$---@@@@@@@#---;@@&---&@@@@@@@@>=--;@@&---$@@@@@@@@&&&&@@@@@@@@@@+",
"+@@@@@@@@@@@@&=----=%@@@@@@@@@@$---@@@@@@@---$@@@@@@@@@@@&---&@@@@@@@@@@---$@@&---&@@$---@@@@@@&---&@@@@@@@$---@@@@@@@@%=----=&@@@@@@@;--=@@@@@@@;---#@@&---*@@@@@@@@*---#@@&---=@@@@@@@#---;@@@@@@@@@@+",
"+@@@@@@@@@@@@@@*-----;#@@@@@@@@$---@@@@@@@---$@@@@@@@@@@@&---&@@@@@@@@@@---$@@@---@@@$---@@@@@@&---&@@@@@@@=---@@@@@@#;-----*@@@@@@@@@---$@@@@@@$---$@@@#---=@@@@@@@&---;@@@#----#@@@@@>=---#@@@@@@@@@@+",
"+@@@@@@@@@@@@@@@>;-----*>@@@@@@$---@@@@@@@---$@@@@@@@@@@@&---&@@@@@@@@@@---$@@@#&#@@@$---@@@@@@&---&@@@@@@@----@@@@>*-----;>@@@@@@@@@&---&@@@@#$---=>@@@@=---$@@@@>*---=>@@@@=---;>@@@>=---*@@@@@@@@@@@+",
"+@@@@@@@@@@@@@@@@@%=----=>@@#$$=---$$%@%$$---=$$#@@@@#$$$;---;$$$#@@@@$$---=$$$@@@$$$=---$$@%$$;---;$$$$$$$----@@@>=----=%@@@@@@@@@@@%------------=>@@@@@%----=$$$----=>@@@@@%----=$$$----$@@@@@@@@@@@@+",
"+@@@@@@@@@@@@@@@@@@>*---$@@@&--------$@$--------&@@@@&-----------&@@@@---------@@@---------@$------------------@@@@$---*>@@@@@@@@@@@@$-----------;>@@@@@@@$----------;>@@@@@@@$----------*@@@@@@@@@@@@@+",
"+@@@@@@@@@@@@@@@@@@@@#;=>@@@&--------$@$--------&@@@@&-----------&@@@@---------@@@---------@$-----------------;@@@@>=;#@@@@@@@@@@@@@@=--------=$#@@@@@@@@@@%=------;%@@@@@@@@@@%=------;#@@@@@@@@@@@@@@+",
"+@@@@@@@@@@@@@@@@@@@@@@#@@@@&--------$@$--------&@@@@&-----------&@@@@---------@@@---------@$-----------------$@@@@@#@@@@@@@@@@@@@@@@@@@@@@@@@@@@@@@@@@@@@@@@#&&&&>@@@@@@@@@@@@@@&&&&&>@@@@@@@@@@@@@@@@+",
"+@@@@@@@@@@@@@@@@@@@@@@@@@@@@@@@@@@@@@@@@@@@@@@@@@@@@@@@@@@@@@@@@@@@@@@@@@@@@@@@@@@@@@@@@@@@@@@@@@@@@@@@@@@@@@@@@@@@@@@@@@@@@@@@@@@@@@@@@@@@@@@@@@@@@@@@@@@@@@@@@@@@@@@@@@@@@@@@@@@@@@@@@@@@@@@@@@@@@@@+",
"+@@@@@@@@@@@@@@@@@@@@@@@@@@@@@@@@@@@@@@@@@@@@@@@@@@@@@@@@@@@@@@@@@@@@@@@@@@@@@@@@@@@@@@@@@@@@@@@@@@@@@@@@@@@@@@@@@@@@@@@@@@@@@@@@@@@@@@@@@@@@@@@@@@@@@@@@@@@@@@@@@@@@@@@@@@@@@@@@@@@@@@@@@@@@@@@@@@@@@@+",
"+@@@@@@@@@@@@@@@@@@@@@@@@@@@@@@@@@@@@@@@@@@@@@@@@@@@@@@@@@@@@@@@@@@@@@@@@@@@@@@@@@@@@@@@@@@@@@@@@@@@@@@@@@@@@@@@@@@@@@@@@@@@@@@@@@@@@@@@@@@@@@@@@@@@@@@@@@@@@@@@@@@@@@@@@@@@@@@@@@@@@@@@@@@@@@@@@@@@@@@+",
"+@@@@@@@@@@@@@@@@@@@@@@@@@@@@@@@@@@@@@@@@@@@@@@@@@@@@@@@@@@@@@@@@@@,''''',@@@@@@@@@,',@@@@@@@@@@@@@@@@@@@@@@@@@@@@@@@@@@,'@@@@@@@@)',@@@@@@@@@@@@@@@@@@@@@@@@@@@@@@@@@@@@@@@@@@@@@@@@@@@@@@@@@@@@@@@@@@+",
"+@@@@@@@@@@@@@@@@@@@@@@@@@@@@@@@@@@@@@@@@@@@@@@@@@@@@@@@@@@@@@@@@@@'!!!!!~,@@@@@@@@'!'@@@@@@@@@@@@@@@@@@@@@@@@@@@@@@@@@@{!@@@@@@,]!!~,@@@@@@@@@@@@@@@@@@@@@@@@@@@@@@@@@@@@@@@@@@@@@@@@@@@@@@@@@@@@@@@@@+",
"+@@@@@@@@@@@@@@@@@@@@@@@@@@@@@@@@@@@@@@@@@@@@@@@@@@@@@@@@@@@@@@@@@@^!^''{!'@@@@@@@@^!)@@@@@@@@@@@@@@@@@@@@@@@@@@@@@@@@{~!~@@@@@@/!^{!'@@@@@@@@@@@@@@@@@@@@@@@@@@@@@@@@@@@@@@@@@@@@@@@@@@@@@@@@@@@@@@@@@+",
"+@@@@@@@@@@@@@@@@@@@@@@@@@@@@@@@@@@@@@@@@@@@@@@@@@@@@@@@@@@@@@@@@@@{!@@@'!'@,{!~'@@{!@@/~!/@@@/!!{@@@/!!/,@@/~!/@@@@@,!!!{@@@@@@!{@'!'@@@@@@@@@@@@@@@@@@@@@@@@@@@@@@@@@@@@@@@@@@@@@@@@@@@@@@@@@@@@@@@@@+",
"+@@@@@@@@@@@@@@@@@@@@@@@@@@@@@@@@@@@@@@@@@@@@@@@@@@@@@@@@@@@@@@@@@@]~@@@/!,@~!{!~@@]~@/!]~!)@/!]~!'@/!{~!/@/!]~!)@@@@@@,!/@@@@@@!]@{!,@@@@@@@@@@@@@@@@@@@@@@@@@@@@@@@@@@@@@@@@@@@@@@@@@@@@@@@@@@@@@@@@@+",
"+@@@@@@@@@@@@@@@@@@@@@@@@@@@@@@@@@@@@@@@@@@@@@@@@@@@@@@@@@@@@@@@@@@!~{{{!{@^!'@{!@@!{,!{@'!'@!]@'!'@!{@,{^,!{@'!'@@@@@@'!'@@@@@@/!!!^@@@@@@@@@@@@@@@@@@@@@@@@@@@@@@@@@@@@@@@@@@@@@@@@@@@@@@@@@@@@@@@@@@+",
"+@@@@@@@@@@@@@@@@@@@@@@@@@@@@@@@@@@@@@@@@@@@@@@@@@@@@@@@@@@@@@@@@@,!!!!!!,@]!''{!@,!/^!/'^!'@@'/~!)@!!]^,@^!/'^!'@@@@@@^!)@@@@@'!~]!]@@@@@@@@@@@@@@@@@@@@@@@@@@@@@@@@@@@@@@@@@@@@@@@@@@@@@@@@@@@@@@@@@@+",
"+@@@@@@@@@@@@@@@@@@@@@@@@@@@@@@@@@@@@@@@@@@@@@@@@@@@@@@@@@@@@@@@@@'!'@@^!{@!!!!!!@'!'{!!!!!',~!]~!@@/!!!~@{!!!!!'@@@@@@{!@@@@@@~]@@]!@@@@@@@@@@@@@@@@@@@@@@@@@@@@@@@@@@@@@@@@@@@@@@@@@@@@@@@@@@@@@@@@@@+",
"+@@@@@@@@@@@@@@@@@@@@@@@@@@@@@@@@@@@@@@@@@@@@@@@@@@@@@@@@@@@@@@@@@/!,@@'!^@!{@@@@@/!,{!@@@@@]~,@~]@')@'~!@{!@@@@@@@@@@@~]@@@@@)!{@@~]@@@@@@@@@@@@@@@@@@@@@@@@@@@@@@@@@@@@@@@@@@@@@@@@@@@@@@@@@@@@@@@@@@+",
"+@@@@@@@@@@@@@@@@@@@@@@@@@@@@@@@@@@@@@@@@@@@@@@@@@@@@@@@@@@@@@@@@@{!@@@'!'@!],^!^@{!@{!))~]@!],^!{@!~),]~@{!))~]@@@@@@@!{@@)!{)!]@'!^@@@@@@@@@@@@@@@@@@@@@@@@@@@@@@@@@@@@@@@@@@@@@@@@@@@@@@@@@@@@@@@@@@+",
"+@@@@@@@@@@@@@@@@@@@@@@@@@@@@@@@@@@@@@@@@@@@@@@@@@@@@@@@@@@@@@@@@@~]@@@'!'@{!!!{@@~]@'!!!~,@~!!{!{@/!!!!'@'!!!~,@@@@@@)!^@@'!^@~!!!{@@@@@@@@@@@@@@@@@@@@@@@@@@@@@@@@@@@@@@@@@@@@@@@@@@@@@@@@@@@@@@@@@@@+",
"+@@@@@@@@@@@@@@@@@@@@@@@@@@@@@@@@@@@@@@@@@@@@@@@@@@@@@@@@@@@@@@@@@')@@@,',@@'{'@@@')@@)/^,@@,/'@''@@'/^,@@@)/^,@@@@@@@,',@@,',@,/{^@@@@@@@@@@@@@@@@@@@@@@@@@@@@@@@@@@@@@@@@@@@@@@@@@@@@@@@@@@@@@@@@@@@@+",
"+@@@@@@@@@@@@@@@@@@@@@@@@@@@@@@@@@@@@@@@@@@@@@@@@@@@@@@@@@@@@@@@@@@@@@@@@@@@@@@@@@@@@@@@@@@@@@@@@@@@@@@@@@@@@@@@@@@@@@@@@@@@@@@@@@@@@@@@@@@@@@@@@@@@@@@@@@@@@@@@@@@@@@@@@@@@@@@@@@@@@@@@@@@@@@@@@@@@@@@+",
"+@@@@@@@@@@@@@@@@@@@@@@@@@@@@@@@@@@@@@@@@@@@@@@@@@@@@@@@@@@@@@@@@@@@@@@@@@@@@@@@@@@@@@@@@@@@@@@@@@@@@@@@@@@@@@@@@@@@@@@@@@@@@@@@@@@@@@@@@@@@@@@@@@@@@@@@@@@@@@@@@@@@@@@@@@@@@@@@@@@@@@@@@@@@@@@@@@@@@@@+",
"+@@@@@@@@@@@@@@@@@@@@@@@@@@@@@@@@@@@@@@@@@@@@@@@@@@@@@@@@@@@@@@@@@@@@@@@@@@@@@@@@@@@@@@@@@@@@@@@@@@@@@@@@@@@@@@@@@@@@@@@@@@@@@@@@@@@@@@@@@@@@@@@@@@@@@@@@@@@@@@@@@@@@@@@@@@@@@@@@@@@@@@@@@@@@@@@@@@@@@@+",
"+@@@@@@@@@@@@@@@@@@@@@@@@@@@@@@@@@@@@@@@@@@@@@@@@@@@@@@@@@@@@@@@@@@@@@@@@@@@@@@@@@@@@@@@@@@@@@@@@@@@@@@@@@@@@@@@@@@@@@@@@@@@@@@@@@@@@@@@@@@@@@@@@@@@@@@@@@@@@@@@@@@@@@@@@@@@@@@@@@@@@@@@@@@@@@@@@@@@@@@+",
".++++++++++++++++++++++++++++++++++++++++++++++++++++++++++++++++++++++++++++++++++++++++++++++++++++++++++++++++++++++++++++++++++++++++++++++++++++++++++++++++++++++++++++++++++++++++++++++++++++++."};
