#define up_width 8
#define up_height 8
static unsigned char up_bits[] = {
   0x04, 0x0e, 0x1f, 0x04, 0x04, 0x04, 0x04, 0xfc};
