/* XPM */
static const char * const htmldoc_xpm[] = {
"32 32 17 1",
" 	c None",
".	c #000000",
"+	c #0F0F0F",
"@	c #FF0000",
"#	c #FF2600",
"$	c #221A18",
"%	c #110200",
"&	c #040000",
"*	c #010000",
"=	c #030000",
"-	c #0D0200",
";	c #220400",
">	c #0D0100",
",	c #3D3534",
"'	c #1C0300",
")	c #030303",
"!	c #070707",
"    ........................    ",
"   ................+.........   ",
"  ............................  ",
" .............................. ",
"................................",
"................................",
".......................+........",
"................................",
"................................",
"................................",
"...........@@@....@@@...........",
"........@@.@##....##@.@@........",
"......@@@@.@##....##@.@@@@......",
"....@@@@...@##....##@...@@@@....",
"...@@@..$..@##@@@@##@.....@@@...",
"...@@@%&*..@#####@##@...=-@@@...",
"....@@@@;>.@##@@@@##@.,'@@@@.*..",
"......@@@@.@##....##@.@@@@..*...",
"........@@.@##....@#@.@@........",
"...........@##....@#@...........",
".........+.@@@....@@@...........",
"................................",
".......++..............)........",
"....+++.................).......",
"..++.....................++)....",
"++..........................+!..",
"..............................+.",
"................................",
" .............................. ",
"  ............................  ",
"   ..........................   ",
"    ........................    "};
