/* XPM */
static char * htmldoc_xpm[] = {
"32 32 32 1",
" 	c None",
".	c #000200",
"+	c #1D1B1A",
"@	c #262624",
"#	c #3B3731",
"$	c #47443E",
"%	c #55524C",
"&	c #716D66",
"*	c #7F7972",
"=	c #9B8E7D",
"-	c #9D958D",
";	c #A29684",
">	c #AEA59B",
",	c #B9AEA3",
"'	c #BEB4A7",
")	c #C8BEB1",
"!	c #C7BEB7",
"~	c #C3C2B9",
"{	c #C7C6BD",
"]	c #CDC5BE",
"^	c #D0C5B8",
"/	c #D1C9C2",
"(	c #D0CFC6",
"_	c #D8CEC1",
":	c #D6CEC7",
"<	c #DCD4CD",
"[	c #E0D5C8",
"}	c #E2D9D2",
"|	c #E8DCCF",
"1	c #E6DED7",
"2	c #ECE4DC",
"3	c #F5ECE5",
"                                ",
"                                ",
"  ,''''''''''''''''''''''''',]  ",
" ,!~~~~~~~~~~!!!!!~~~~~~~~~~!,  ",
" '!{{!]{]]{]!~~!~~!~{!]{]]{]!'  ",
" ']]]]]]]]]~!!~~!!!!]]]]]]]]]'  ",
" ']]{]]{]]]~~{~{~~~~~]]{]]]{]'  ",
" '////////{~]]]]]]]]{{///////'  ",
" '////////]]]]]]]]]]]{///////'  ",
" ':::((:(/]]{{///({]]/(:(:(:('  ",
" '::::::::{{&%{]]-%>//:::::::'  ",
" ':::(:]^-*'+.'''&.&'&,]/::::'  ",
" ':_^))-#.&'+.'''&.&'$.%>)^_:'  ",
" ;^^^-#.%>')+.&**$.*))-$.%>^^;  ",
" =^^*.@,^^))+......*))^^-..>^=  ",
" =^^)&..&,))+.>>>&.*))>%.@*^^=  ",
" =:___^-@.*^+.^^^*.*^%.$-__:_=  ",
" =[[[[[[[>-^+.^]^*.*]*,[[[[[[=  ",
" =<<<<<<<<<^+./_/*.*/<<<<<<<<=  ",
" =[[[[[[[}[_/_:::::_:[[[[}[[[=  ",
" =|}}}|}||<:::_[<___:}|}||}}|=  ",
" =|1||11|}<::::<<[<::[11|1|11=  ",
" =111111}<<<<<<<<<<<<<1|111|1=  ",
" =22|1}<<<<<}|}}}}}}|<}}12222=  ",
" =11}}}}}}}}11111111}}}}}1222=  ",
" =}}}}}}}}}}112221111}}}}}}12=  ",
" =1111}11}}}122222221}}11}111=  ",
" =111111111112333322111111111=  ",
" =122222222222333332212222221=  ",
" =)2222222222223333222222222)=  ",
"  ==========================;%  ",
"                                "};
