/* XPM */
static const char * const htmldoc_xpm[] = {
"32 32 25 1",
" 	c None",
".	c #000000",
"+	c #FFFFF0",
"@	c #FFFFFF",
"#	c #0F0F0F",
"$	c #FCFCFC",
"%	c #FEFEFE",
"&	c #FF2600",
"*	c #FF0000",
"=	c #010000",
"-	c #221A18",
";	c #050000",
">	c #110200",
",	c #040000",
"'	c #030000",
")	c #0D0200",
"!	c #340800",
"~	c #220400",
"{	c #0D0100",
"]	c #3D3534",
"^	c #1C0300",
"/	c #2B0700",
"(	c #430A01",
"_	c #030303",
":	c #070707",
"  ............++++...........   ",
" ............@@@@@@#..........  ",
"...........@@@@@@@@@........... ",
"..........@@@@@@@@@@@...........",
"..........@@@@@@@@@@@@..........",
".........@@@@@@@@@@@@@..........",
".........@@@@@@@@@@@@@.#........",
".........@@@@@@@@@@@@@@.........",
"........@@@@@@@@@@@@@@@.........",
"........@$@@@@@@@@@@@@@.........",
"........@@@....@@....@%@........",
"............&&.@@.&&............",
"........**..&&.@@.&&..**........",
"......**....&&.@@.&&....**=.....",
"....**..-@@.&&....&&.@@...**;...",
"...*..>,=@@.&&&&&&&&.@@.')..*=..",
"....**.!~{@.&&....&&.@]^/.**.=..",
"......**....&&.@@.&&..(.**..=...",
"........**..&&.@@.&&..**........",
"............&&.@@.&&............",
".........#@....@@....@..........",
".........@@@@@@@@@@@@@..........",
".......##@@@@@@@@@@@@@._........",
"....###@@@@@@@@@@@@@@@@._.......",
"..##@@@@@@@@@@@@@@@@@@@@.##_....",
"##@@@@@@@@@@@@@@@@@@@@@@@@@.#:..",
"@@@@@@@@@@@@@@@@@@@@@@@@@@@@@.#.",
"@@@@@@@@@@@@@@@@@@@@@@@@@@@@@@@+",
"@@@@@@@@@@@@@@@@@@@@@@@@@@@@@@@+",
"@@@@@@@@@@@@@@@@@@@@@@@@@@@@@@@+",
" @@@@@@@@@@@@@@@@@@@@@@@@@@@@@+ ",
"  @@@@@@@@@@@@@@@@@@@@@@@@@@@+  "};
