#define htmldoc_t_m_width 16
#define htmldoc_t_m_height 16
static unsigned char htmldoc_t_m_bits[] = {
   0x3f, 0x00, 0xff, 0x1e, 0xff, 0x33, 0xff, 0x67, 0xff, 0x6f, 0xff, 0x6f,
   0xff, 0x7f, 0xff, 0x3f, 0xff, 0x3f, 0xff, 0x7f, 0xff, 0x7f, 0xff, 0x7f,
   0xff, 0xff, 0xff, 0xff, 0xff, 0xff, 0xff, 0xff };
